PathFileType	4	(X/Y/Z)	c:/Users/goper/Files/vsCode/490R/osim_files/C17/C17_SSWS_02.trc
DataRate	CameraRate	NumFrames	NumMarkers	Units                	OrigDataRate	OrigDataStartFrame	OrigNumFrames
250.00	250.00	9	36	mm	250.0	1516	2425
                Frame#	Time	LPSIS			LASIS			LTH1			LTH2			LTH3			LTH4			LLFE			LMFE			LSH1			LSH2			LSH3			LSH4			LLMAL			LMMAL			LCAL			LMTP5			LTOE			LMTP1			RPSIS			RASIS			RTH1			RTH2			RTH3			RTH4			RLFE			RMFE			RSH1			RSH2			RSH3			RSH4			RLMAL			RMMAL			RCAL			RMTP1			RTOE			RMTP5		
		X1	Y1	Z1	X2	Y2	Z2	X3	Y3	Z3	X4	Y4	Z4	X5	Y5	Z5	X6	Y6	Z6	X7	Y7	Z7	X8	Y8	Z8	X9	Y9	Z9	X10	Y10	Z10	X11	Y11	Z11	X12	Y12	Z12	X13	Y13	Z13	X14	Y14	Z14	X15	Y15	Z15	X16	Y16	Z16	X17	Y17	Z17	X18	Y18	Z18	X19	Y19	Z19	X20	Y20	Z20	X21	Y21	Z21	X22	Y22	Z22	X23	Y23	Z23	X24	Y24	Z24	X25	Y25	Z25	X26	Y26	Z26	X27	Y27	Z27	X28	Y28	Z28	X29	Y29	Z29	X30	Y30	Z30	X31	Y31	Z31	X32	Y32	Z32	X33	Y33	Z33	X34	Y34	Z34	X35	Y35	Z35	X36	Y36	Z36

1516	6.06000	-2332.56616	1054.63330	296.71906	-2523.60693	1004.66412	406.73080	-2352.54980	715.29401	436.54303	-2345.64795	671.11694	426.69000	-2412.64893	706.01337	434.76736	-2400.00464	661.94891	424.65393	-2294.30591	509.95074	396.88190	-2291.55347	515.53711	275.22586	-2148.11230	315.77094	394.39432	-2132.32935	274.99036	386.99948	-2204.43481	287.63870	390.85663	-2181.15430	251.36362	383.68988	-2089.21680	136.62416	359.43463	-2101.31982	145.75571	273.16788	-2002.66833	116.53365	319.59210	-2183.55444	50.20071	372.77060	-2239.50635	66.06947	303.17212	-2219.35913	51.74016	255.31575	-2336.25244	1047.87476	222.86183	-2520.60571	1016.93817	135.59689	-2624.41968	763.11115	96.11570	-2642.52808	719.30072	96.49683	-2571.32568	738.40942	81.23306	-2592.80249	697.68250	89.10725	-2718.34082	520.92920	121.67425	-2695.51611	523.76318	243.87056	-2733.42261	307.87332	115.23013	-2754.38770	270.41150	129.59251	-2784.79858	334.76361	125.25745	-2802.65137	292.51892	132.47168	-2841.54956	116.06772	162.07260	-2855.89136	147.83392	246.43900	-2802.89648	48.68070	211.98343	-3009.72461	160.89105	253.93295	-3003.56445	192.07686	205.26305	-2978.43921	130.87289	140.34128
1517	6.06400	-2339.69873	1053.57874	295.03528	-2536.62646	1006.21088	408.16278	-2358.67358	714.78912	436.30984	-2351.55225	670.49664	426.42798	-2418.75122	705.39709	434.69949	-2405.99487	661.32806	424.49628	-2299.80371	509.44745	396.76358	-2296.71948	515.11920	274.35306	-2151.51221	316.90173	394.51166	-2135.24731	276.19852	387.12125	-2207.68188	288.14212	390.96033	-2183.95728	252.13319	383.83499	-2090.82593	138.32231	359.80707	-2102.50049	147.47696	273.52762	-2003.41882	119.48701	319.60257	-2183.86523	50.36992	372.88779	-2239.69507	66.12267	303.06433	-2218.83813	51.50119	254.66054	-2342.95264	1046.90222	222.71033	-2527.45996	1016.46747	135.18759	-2632.47461	763.23358	96.25009	-2650.60278	719.44855	96.75811	-2579.43091	738.39600	81.40300	-2600.98145	697.70178	89.41581	-2723.94873	519.68933	122.10349	-2704.01050	524.03448	244.16974	-2738.77783	306.80554	115.72748	-2759.06396	269.22394	130.19710	-2790.26440	333.22595	126.07254	-2807.45654	290.56137	133.55513	-2844.08569	113.83913	163.16377	-2858.10034	145.92316	247.33084	-2804.69702	47.05805	213.15178	-3013.04980	156.97557	255.38081	-3006.39331	188.83871	206.33112	-2980.99316	127.45497	141.64024
1518	6.06800	-2346.42944	1052.43848	294.83344	-2543.22339	1005.17804	407.90762	-2364.81470	714.30621	436.00702	-2357.45215	670.10669	426.24423	-2424.84839	704.74164	434.54358	-2411.96948	660.59943	424.28384	-2305.42065	508.93564	396.67828	-2302.55664	514.58691	274.19189	-2155.02808	317.97760	394.62137	-2138.36377	277.46048	387.34290	-2210.80200	288.67926	391.07172	-2186.80957	252.84338	383.98605	-2092.24561	140.09601	360.25305	-2104.27002	149.13249	273.92447	-2004.86731	122.36407	320.22827	-2184.21558	50.53046	372.96652	-2239.75269	66.16109	303.09851	-2219.59497	51.95280	255.49992	-2349.73096	1046.00806	222.50726	-2534.40723	1016.02789	134.80852	-2640.46680	763.24023	96.41019	-2658.78418	719.49768	97.03903	-2587.49487	738.33679	81.67065	-2608.66138	697.51001	89.00311	-2731.29175	518.86792	122.54917	-2712.51636	524.30725	244.55119	-2743.81445	305.55310	116.27227	-2763.42969	267.90045	130.90308	-2795.35132	331.53122	126.76521	-2812.22827	289.33560	133.81750	-2846.27734	112.07952	164.10776	-2860.79321	143.83374	248.29742	-2805.63232	47.02135	213.73485	-3016.20825	152.89951	256.72458	-3008.99707	185.55977	207.41914	-2983.38184	124.13917	142.95929
1519	6.07200	-2352.80176	1051.51965	296.12103	-2549.90381	1004.13391	407.65778	-2370.92041	713.75995	435.57504	-2363.53516	669.53394	425.89096	-2430.94360	704.00116	434.24625	-2418.04712	659.86487	424.13062	-2311.04248	508.39667	396.50677	-2308.75928	513.99213	274.05368	-2158.74707	319.18134	394.67886	-2141.44019	278.77557	387.42072	-2214.22168	289.19751	391.17166	-2188.66895	253.70256	383.62302	-2094.06348	141.85240	360.62033	-2106.01025	150.84344	274.26389	-2006.21570	125.30628	320.53043	-2184.66528	50.70604	373.04147	-2239.82593	66.19108	303.13727	-2219.73560	52.02673	255.55763	-2356.48560	1045.07300	222.37173	-2543.55176	1016.38074	134.08102	-2648.47485	763.08832	96.61205	-2666.90112	719.40564	97.33215	-2595.46826	738.15723	82.00169	-2617.08447	697.57202	90.20910	-2738.40674	517.78699	122.96420	-2720.85864	524.41071	244.93991	-2748.48779	304.21561	116.96780	-2767.50830	266.46445	131.60724	-2800.60864	330.01810	127.11145	-2822.06128	290.56122	133.46809	-2848.76709	110.57850	164.93593	-2863.41479	141.68141	249.19714	-2806.32080	46.79125	214.19543	-3019.21753	148.68803	257.95285	-3011.43091	181.85498	208.92816	-2985.44409	121.05517	144.13763
1520	6.07600	-2366.50854	1048.48804	299.95914	-2556.74487	1003.20807	407.42841	-2377.14136	713.24988	435.12399	-2369.71655	668.96606	425.47757	-2437.13330	703.38678	434.07083	-2424.40259	659.46997	424.00165	-2316.92773	507.86050	396.35175	-2314.95483	513.33313	273.92099	-2162.60400	320.50293	394.86249	-2144.79126	280.17041	387.52625	-2217.58276	289.67529	391.24530	-2191.70093	254.60994	383.74234	-2095.63867	143.73848	360.97888	-2107.80713	152.68604	274.60193	-2007.87903	128.42175	320.89764	-2185.14551	50.86937	373.08865	-2239.87793	66.19901	303.15924	-2219.91528	52.15226	255.64488	-2361.76636	1044.66968	221.83667	-2550.83203	1015.96503	133.71404	-2656.50610	762.83905	96.76833	-2674.89429	719.17719	97.72186	-2603.48413	737.94312	82.42238	-2624.95801	697.33514	90.64171	-2745.90723	517.24951	122.98557	-2728.96582	524.47369	245.28853	-2753.03320	302.72189	117.63953	-2771.36743	264.94244	132.33371	-2806.04053	328.68671	127.17915	-2820.38867	284.52277	136.20667	-2851.02441	108.71267	165.80090	-2865.64258	139.53484	250.09999	-2807.31055	46.26183	214.67122	-3022.09692	144.36638	259.05420	-3014.46484	178.01057	210.81133	-2987.45093	118.17875	145.32315
1521	6.08000	-2367.22607	1049.18921	294.07159	-2557.01562	999.43311	405.55801	-2383.56445	712.76788	434.71738	-2376.03491	668.38324	425.05957	-2443.52026	702.85974	433.91257	-2430.36157	658.56036	423.85031	-2323.12598	507.32974	396.22284	-2321.36450	512.70422	273.69299	-2166.45166	321.86264	394.86719	-2148.22437	281.53958	387.58362	-2221.09985	290.33386	391.23755	-2194.89038	255.47911	383.82367	-2097.49414	145.67403	361.29984	-2109.71387	154.49187	274.88858	-2009.58411	131.66240	321.18222	-2185.57080	51.05755	373.13828	-2239.97729	66.23491	303.22565	-2220.07715	52.25323	255.68335	-2370.26904	1043.28137	221.82507	-2555.95825	1014.67029	133.77600	-2664.40576	762.37665	97.02528	-2680.01123	717.83313	98.87608	-2611.40137	737.54517	82.86656	-2632.81445	696.87341	91.27290	-2752.06885	515.29437	123.64906	-2736.90503	524.44080	245.71690	-2757.34521	301.19363	118.54398	-2775.08545	263.36185	133.13855	-2811.46216	327.42502	127.11814	-2824.55542	283.41177	136.12151	-2853.26514	106.98119	166.57362	-2868.19653	137.13521	250.99603	-2808.21045	46.07771	215.20551	-3024.86572	139.95975	260.01730	-3017.64331	174.12244	212.52110	-2989.36523	115.25338	146.39885
1522	6.08400	-2374.26221	1048.13928	293.76532	-2570.36670	1001.22534	407.04135	-2390.00146	712.25629	434.23013	-2382.37061	667.83240	424.60739	-2448.21558	700.55170	432.16965	-2436.65503	657.93243	423.73721	-2329.14966	506.64511	396.05615	-2328.07202	511.95993	273.52893	-2170.41187	323.09018	394.77261	-2151.71387	283.06866	387.61417	-2224.88403	290.95413	391.32089	-2198.01611	256.44153	383.89935	-2099.46973	147.71211	361.64758	-2111.84473	156.42497	275.18942	-2011.37573	134.98859	321.47256	-2185.96118	51.26814	373.15067	-2240.09424	66.31025	303.26907	-2220.25195	52.39239	255.74469	-2375.69751	1042.92017	221.25856	-2563.28394	1014.22205	133.47520	-2672.31030	761.87390	97.31445	-2687.88916	717.27313	99.39483	-2619.15161	737.03802	83.31052	-2640.46021	696.36719	91.87665	-2758.70093	513.91443	123.88088	-2744.55518	524.34808	246.03279	-2761.61157	299.67365	119.43749	-2778.78394	261.79147	134.05133	-2816.68970	326.12112	127.07829	-2828.22021	280.47357	137.92468	-2855.64111	106.17503	167.30704	-2871.14258	134.88126	252.01736	-2813.07935	45.36806	217.20689	-3027.54224	135.49332	260.83069	-3020.82837	169.98593	214.10947	-2991.36475	112.05859	147.54756
1523	6.08800	-2381.17554	1047.32214	293.49268	-2570.66528	997.44122	405.25403	-2396.37012	711.70123	433.56192	-2388.87012	667.24542	424.09024	-2456.20337	701.48596	433.38290	-2443.16431	657.26526	423.53946	-2335.52905	506.04050	395.87656	-2334.80103	511.16296	273.26569	-2174.53345	324.35544	394.65366	-2155.36475	284.55209	387.59998	-2228.64380	291.55420	391.39410	-2201.38867	257.37701	383.94528	-2101.56738	149.81551	361.95538	-2114.07544	158.40868	275.46426	-2013.33447	138.46198	321.75916	-2186.51465	51.55032	373.18735	-2240.28662	66.39253	303.31204	-2220.40552	52.50721	255.76726	-2384.57275	1041.48059	221.23743	-2573.01440	1014.64349	132.83687	-2680.04932	761.11969	97.54106	-2695.44604	716.53174	99.88331	-2626.80078	736.39240	83.75404	-2648.06738	695.73810	92.54735	-2765.66992	513.11218	123.63926	-2751.82666	524.12982	246.21945	-2765.90186	298.19476	120.46577	-2782.69336	260.39398	135.04631	-2821.53955	324.66312	127.20944	-2832.19067	278.54459	138.82257	-2858.51221	105.70265	168.22719	-2874.57983	133.18544	253.02226	-2810.33862	46.85525	216.40298	-3030.14551	130.99231	261.48300	-3026.34692	163.44435	215.01479	-2993.70142	108.47273	148.74669
1524	6.09200	-2387.51758	1046.76855	292.68564	-2584.04688	999.32806	406.74249	-2403.01221	711.20984	432.85428	-2395.46118	666.63989	423.44916	-2462.88965	700.89258	433.20349	-2449.63062	656.59882	423.33356	-2342.04248	505.38904	395.66119	-2341.89062	510.41043	273.09860	-2178.99756	325.89908	394.54861	-2159.22998	286.16809	387.60217	-2232.64136	292.35077	391.36963	-2204.85205	258.48267	383.98773	-2103.63672	152.02560	362.29581	-2116.44775	160.43494	275.74890	-2015.44397	142.11963	321.98209	-2187.11646	51.87833	373.21390	-2240.52979	66.52376	303.35492	-2220.63306	52.65809	255.77032	-2391.66724	1040.86108	221.26268	-2578.07788	1013.31927	133.17198	-2687.62671	760.37085	97.91757	-2702.88428	715.69043	100.41405	-2634.41138	735.70856	84.06419	-2655.34741	694.97821	93.04758	-2771.38208	511.13358	123.82320	-2758.75220	523.78143	246.29008	-2770.48584	296.88199	121.47506	-2786.86743	259.14212	136.21863	-2825.82666	322.93903	127.66144	-2836.55640	276.98178	139.78868	-2861.59448	105.35192	169.00839	-2878.40918	131.73090	253.98589	-2811.73193	47.89672	216.77576	-3032.69409	126.48193	261.96280	-3030.91577	159.26796	215.83363	-2996.31006	104.59635	149.90788
